<svg width="102" height="26" viewBox="0 0 102 26" fill="none" xmlns="http://www.w3.org/2000/svg">
<path d="M11.7278 11.8902H21.1021V24.6128C19.5862 25.128 18.1103 25.4451 16.6742 25.6829C15.2382 25.9207 13.7223 26 12.0868 26C8.21744 26 5.26554 24.8506 3.15135 22.5915C1.07704 20.3323 0 17.122 0 13C0 8.91768 1.19671 5.74695 3.55025 3.44816C5.90379 1.14938 9.13492 0 13.2835 0C15.9562 0 18.4693 0.515239 20.8627 1.50609L19.3868 4.95427C17.3125 4.00305 15.2382 3.52744 13.2038 3.52744C10.4912 3.52744 8.33711 4.35975 6.74149 6.06402C5.14587 7.76829 4.38796 10.0671 4.38796 13.0396C4.38796 16.1311 5.10598 18.4695 6.50215 20.0945C7.9382 21.7195 9.97262 22.5122 12.6453 22.5122C14.0016 22.5122 15.4376 22.3537 16.9535 21.997V15.4573H11.7278V11.8902ZM41.6058 25.6433H27.2053V0.356705H41.6058V3.84451H31.3539V10.7408H40.9675V14.189H31.3539V22.1159H41.6058V25.6433ZM68.3324 25.6433H63.2264L50.7008 5.46951H50.5812L50.6609 6.57926C50.8205 8.71951 50.9003 10.7012 50.9003 12.4451V25.6037H47.1107V0.317068H52.1768L64.6625 20.372H64.7822C64.7423 20.0945 64.7024 19.1433 64.6625 17.4787C64.5827 15.814 64.5428 14.5061 64.5428 13.5945V0.356705H68.3723V25.6433H68.3324ZM94.5006 25.6433H89.6738L81.6957 14.189L79.2225 16.1707V25.6433H75.0739V0.356705H79.2225V12.4055C80.3794 11.0183 81.4963 9.67073 82.6132 8.40244L89.4744 0.317068H94.2214C89.7536 5.50914 86.6023 9.19512 84.6476 11.4146L94.5006 25.6433ZM97.8514 25.6433V0.356705H102V25.6433H97.8514Z" fill="#FF7D34"/>
</svg>
