<svg width="36" height="40" viewBox="0 0 36 40" fill="none" xmlns="http://www.w3.org/2000/svg">
<path d="M17.6293 38.9875C27.2604 38.9875 35.068 31.1796 35.068 21.548C35.068 11.9164 27.2604 4.1084 17.6293 4.1084C7.99823 4.1084 0.190674 11.9164 0.190674 21.548C0.190674 31.1796 7.99823 38.9875 17.6293 38.9875Z" fill="white"/>
<path d="M26.5475 13.2814C26.3408 12.9475 26.15 12.5978 25.9911 12.2321C25.848 11.9142 25.4347 11.8824 25.1485 12.0414C24.7829 12.0096 24.3696 12.2957 24.5127 12.7567C24.7034 13.3767 24.9737 13.9808 25.3075 14.5532C25.546 14.9665 26.0706 14.887 26.2931 14.5691C26.4998 14.585 26.6905 14.4896 26.8336 14.2829C26.929 14.1398 26.9608 13.9967 26.9767 13.8219C26.9926 13.5834 26.7859 13.3608 26.5475 13.2814Z" fill="black"/>
<path d="M24.322 6.46134C24.1789 6.28647 23.8928 6.39775 23.8292 6.58852C23.7974 6.57262 23.7497 6.57262 23.7179 6.55672C23.5113 6.54083 23.4 6.76339 23.4318 6.92237C23.4477 6.98596 23.4636 7.06545 23.4636 7.12904C23.3046 7.17673 23.1934 7.3675 23.2728 7.55827C23.4318 7.90801 23.5272 8.25776 23.6067 8.6393C23.6385 8.81417 23.7815 8.86186 23.9246 8.84596C23.9246 8.86186 23.9405 8.87776 23.9564 8.89366C24.0359 9.02084 24.163 9.05263 24.2584 9.02084C24.3379 9.21161 24.6399 9.30699 24.783 9.06853C25.2599 8.33725 24.8307 7.08134 24.322 6.46134Z" fill="#819CC1"/>
<path d="M34.9728 22.4225C34.9728 22.343 34.9887 22.2794 34.9887 22.1999C34.9887 22.1522 34.9887 22.1045 34.9728 22.0568C35.0364 21.9614 35.084 21.8501 35.084 21.723C35.0681 21.0394 35.0364 20.3717 34.9728 19.6881C34.9251 19.1317 34.9092 18.5276 34.6389 18.0348C34.6389 17.9871 34.6389 17.9394 34.6389 17.8917C34.3687 15.9045 33.4149 14.0922 32.3339 12.4388C31.5391 11.2147 30.7125 9.81575 29.4884 8.98908C29.2341 8.68702 28.9638 8.41677 28.6618 8.16241C28.5664 8.08292 28.471 8.03522 28.3597 8.01933C28.1531 7.82856 27.9464 7.63779 27.7398 7.46291C27.6762 7.39932 27.5967 7.36753 27.5172 7.35163C27.4377 7.27215 27.3424 7.22445 27.2629 7.20856C27.1357 7.11317 27.0085 7.01779 26.8655 6.9224C26.8496 6.9065 26.8337 6.89061 26.8019 6.89061C26.5157 6.69984 26.2455 6.50907 25.9434 6.33419C25.9911 6.3024 26.0229 6.25471 26.0388 6.17522C26.0547 6.12753 26.0547 6.07983 26.0706 6.03214C26.3568 5.73009 26.6111 5.41214 26.8337 5.06239C27.247 4.71265 27.6126 4.34701 27.9782 3.94957C27.9941 3.94957 28.01 3.93367 28.0418 3.93367C28.4233 3.7588 28.7572 3.50444 29.0433 3.20239C29.091 3.15469 29.1069 3.0911 29.1228 3.04341C29.3771 2.88444 29.6315 2.74136 29.8858 2.59828C29.9494 2.56649 29.9971 2.51879 30.013 2.4552C30.1402 2.42341 30.2197 2.34392 30.3627 2.21674C30.5853 2.02597 30.8555 1.88289 31.1258 1.75571C31.3642 1.64443 31.6027 1.54905 31.8411 1.43776C32.1273 1.31058 32.4611 1.05622 32.779 1.16751C32.9062 1.1993 33.0016 1.16751 33.0652 1.10392C33.3831 1.29469 33.6851 0.785966 33.3672 0.595196C33.0334 0.404426 32.8426 0.293143 32.4452 0.37263C31.9842 0.452118 31.5232 0.579298 31.0781 0.738273C30.6807 0.881351 30.2991 1.07212 29.9335 1.27879C29.5043 1.53315 29.0592 1.67623 28.5823 1.8352C28.5028 1.867 28.4551 1.91469 28.4074 1.96238C28.2167 2.05777 28.0259 2.16905 27.8828 2.24854C27.5808 2.40751 27.2947 2.58238 27.0085 2.75726C26.9767 2.74136 26.9608 2.74136 26.929 2.74136C26.627 2.74136 26.3568 2.99572 26.1183 3.15469C25.7845 3.37726 25.4506 3.63162 25.1327 3.87008C25.1168 3.88598 25.1009 3.90187 25.085 3.91777C24.9896 3.98136 24.8943 4.04495 24.8148 4.10854C24.7353 4.07675 24.6558 4.07675 24.5763 4.12444C24.1948 4.3788 23.8292 4.64906 23.4795 4.95111C23.4159 4.9988 23.3841 5.06239 23.3841 5.12598C23.1456 5.0465 22.8913 4.9988 22.6369 4.95111C22.621 4.95111 22.6051 4.95111 22.5892 4.95111C22.3508 4.76034 22.0964 4.63316 21.7944 4.55367C21.7308 4.53777 21.6831 4.53777 21.6354 4.55367C21.556 4.52188 21.4606 4.52188 21.3811 4.56957C21.3652 4.58547 21.3493 4.60137 21.3334 4.60137C21.3016 4.58547 21.2698 4.58547 21.2221 4.58547H21.2062C21.0632 4.49008 20.8406 4.52188 20.777 4.74444C20.7611 4.79214 20.7611 4.82393 20.7452 4.85573C20.7134 4.91932 20.6975 4.98291 20.6657 5.06239C20.634 5.12598 20.6499 5.18957 20.6657 5.25316C20.6657 5.26906 20.6657 5.26906 20.6657 5.28496C20.6499 5.33265 20.6499 5.38034 20.634 5.42803C20.634 5.45983 20.634 5.47573 20.634 5.49163C20.5863 5.6347 20.5386 5.77778 20.5227 5.92086C20.5227 5.95265 20.5227 5.96855 20.5227 6.00035C20.4909 6.04804 20.4591 6.09573 20.4591 6.17522C20.4591 6.22291 20.4591 6.2865 20.4591 6.33419C20.4432 6.65214 20.3637 6.9542 20.3637 7.27215C20.3637 7.47881 20.3796 7.68548 20.3955 7.89215C20.3796 8.09881 20.3796 8.28958 20.4114 8.49625C20.4114 8.51215 20.4114 8.54395 20.4273 8.55984C20.4591 9.13215 20.5386 9.72036 20.6975 10.2768C20.6975 10.3086 20.6975 10.3563 20.6975 10.3881C20.7611 10.6424 20.8406 10.8809 20.9201 11.1352C20.9201 11.1511 20.9201 11.1511 20.9201 11.167C20.9837 11.5645 21.1426 11.9142 21.3175 12.264C21.3175 12.2799 21.3175 12.2958 21.3334 12.3276C21.6354 13.4245 22.3349 14.4896 22.9231 15.4594C22.939 15.5388 22.9867 15.6183 23.0503 15.666C23.2092 15.825 23.4795 15.7137 23.543 15.5388C23.543 15.5388 23.543 15.5388 23.5589 15.5388C23.6543 15.5865 23.7656 15.5706 23.8451 15.5388C23.9882 15.6183 24.1948 15.5547 24.2743 15.4117C24.4492 15.3958 24.6081 15.2209 24.5445 15.046C24.5445 15.0301 24.5445 15.0301 24.5286 15.0301C24.5922 14.9983 24.6558 14.9347 24.6876 14.8553C24.783 14.8553 24.8625 14.8235 24.942 14.7758C24.9579 14.7917 24.9896 14.7917 25.0055 14.8076L25.5619 15.4912C25.9752 15.9999 26.3886 16.5245 27.1198 16.3655C27.2629 16.3337 27.39 16.2224 27.4695 16.0953C27.5331 16.2383 27.5967 16.3814 27.6762 16.5245C27.9623 17.0968 28.328 17.5896 28.8525 17.9553C28.9002 17.9871 28.9479 18.003 28.9956 18.0189C29.0115 18.0665 29.0115 18.0983 29.0274 18.146C29.091 18.4004 29.3135 18.5276 29.552 18.5594C29.5997 18.6866 29.6633 18.8137 29.711 18.9409C29.5361 19.1476 29.5043 19.4337 29.7428 19.6722C29.4248 19.7517 29.2023 20.1968 29.3612 20.5307C29.3612 20.5307 29.3612 20.5307 29.3453 20.5466C29.2976 20.6101 29.2659 20.6578 29.2341 20.7214C28.789 20.8168 28.63 21.5163 29.0751 21.8025C29.4884 22.0727 29.9017 22.3748 30.3468 22.5814C30.3627 22.5814 30.3627 22.5973 30.3786 22.5973C30.3945 22.6132 30.4104 22.6291 30.4263 22.645C30.5535 22.7404 30.6966 22.7722 30.8555 22.8199L31.0304 22.8835C31.0463 22.8835 31.0463 22.8994 31.0622 22.8994C31.1735 22.9789 31.2847 23.0266 31.4119 23.0743C31.4596 23.0902 31.4914 23.0902 31.5232 23.0902C31.6504 23.1378 31.7775 23.2014 31.9047 23.2491C31.9365 23.2968 32.0001 23.3445 32.0796 23.3604C32.1432 23.3763 32.1908 23.3763 32.2544 23.3922C32.2862 23.3922 32.318 23.3922 32.3498 23.3922C32.477 23.4399 32.6201 23.5035 32.7313 23.5353C32.9539 23.5989 33.1764 23.6466 33.399 23.6943C33.7169 23.742 34.0508 23.7737 34.3846 23.7896C34.4482 23.8055 34.5277 23.8055 34.5912 23.7896C34.623 23.7896 34.6548 23.7896 34.7025 23.7896C34.7343 23.7896 34.7502 23.7896 34.782 23.7737C34.9092 23.7579 34.9887 23.6466 34.9887 23.5194C35.0681 23.4081 35.0999 23.2491 35.0522 23.0743C34.9728 22.8358 34.9569 22.6291 34.9728 22.4225Z" fill="#829FC7"/>
<path d="M14.784 7.71718C14.784 7.66948 14.7998 7.63769 14.7998 7.59C14.7998 7.36743 14.784 7.16076 14.7681 6.9382C14.7681 6.77922 14.7363 6.62025 14.7045 6.47717C14.6886 6.3023 14.6727 6.12743 14.6409 5.95255C14.6568 5.90486 14.6568 5.84127 14.625 5.77768C14.6091 5.72999 14.5932 5.6823 14.5773 5.61871C14.5614 5.55512 14.5455 5.49152 14.5296 5.42793C14.5137 5.38024 14.4978 5.34845 14.4819 5.33255C14.466 5.20537 14.4342 5.07819 14.4024 4.95101C14.3865 4.90332 14.3706 4.85563 14.3388 4.82383C14.3388 4.80793 14.3388 4.79204 14.3388 4.77614C14.307 4.52178 14.005 4.44229 13.846 4.55357C13.8143 4.56947 13.7825 4.60126 13.7507 4.63306C13.6394 4.58537 13.5122 4.60126 13.4327 4.68075C13.3374 4.68075 13.242 4.72844 13.1784 4.79203C13.0353 4.71255 12.8287 4.76024 12.7492 4.90332C12.6061 4.82383 12.3836 4.91922 12.3359 5.07819C12.2087 4.98281 12.002 5.0146 11.9225 5.14178C11.9067 5.12588 11.8908 5.12588 11.8749 5.10998C11.6682 4.90332 11.4456 4.71255 11.2072 4.52178C10.8734 4.18793 10.476 3.93357 10.0626 3.69511C10.0467 3.63152 10.0149 3.56793 9.98315 3.52024C9.93546 3.48844 9.88777 3.44075 9.84008 3.40895C9.7765 3.36126 9.71291 3.32946 9.63343 3.32946C9.58574 3.32946 9.53804 3.34536 9.49036 3.36126C8.52066 2.69357 7.48738 2.15305 6.4223 1.66023C5.9295 1.35817 5.38901 1.13561 4.83263 0.944839C4.76904 0.928942 4.70545 0.928943 4.64187 0.960738C4.22855 0.769968 3.81524 0.610993 3.37013 0.483813C3.29065 0.467915 3.21117 0.483812 3.14758 0.515607C2.92503 0.452017 2.67068 0.43612 2.43223 0.49971C2.41633 0.49971 2.40044 0.515607 2.38454 0.515607C2.30505 0.515607 2.20968 0.515607 2.1143 0.515607C1.74867 0.531505 1.73277 1.11971 2.1143 1.10381C2.5912 1.07202 3.02041 1.24689 3.44962 1.42176C3.545 1.46946 3.64038 1.45356 3.71986 1.42176C4.06959 1.64433 4.41931 1.8351 4.78494 2.04177C5.38901 2.39151 5.96129 2.78895 6.50178 3.21818C7.55096 4.07665 8.48887 5.0464 9.39498 6.04794C9.44267 6.09563 9.49036 6.12743 9.55394 6.12743C9.44267 6.12743 9.33139 6.15922 9.22011 6.22281C8.45707 6.76332 7.70993 7.31974 6.97868 7.89205C6.34281 8.38487 5.70695 8.8777 5.18236 9.51359C5.10287 9.54539 5.02339 9.59308 4.94391 9.68847C3.73576 11.1192 2.68658 12.6613 1.84405 14.3464C1.81226 14.41 1.79636 14.4577 1.78046 14.5213C1.76457 14.5372 1.74867 14.5531 1.73278 14.5849C1.44664 14.9982 1.38305 15.4911 1.28767 15.9839C1.27177 16.0475 1.25588 16.1111 1.25588 16.1746C1.1446 16.4767 1.01742 16.7788 0.922044 17.0808C0.778974 17.4941 0.683594 17.9075 0.635903 18.3367C0.572317 18.4162 0.524626 18.4957 0.508729 18.5911C0.429246 19.1316 0.349763 19.688 0.31797 20.2285C0.254383 20.5783 0.206693 20.928 0.270279 21.2936C0.270279 21.548 0.27028 21.8024 0.286177 22.0567C0.286177 22.1203 0.286178 22.1839 0.302075 22.2475C0.270281 22.2793 0.238487 22.327 0.206693 22.3747C0.190797 22.4383 0.159004 22.486 0.143108 22.5495C0.111314 22.6767 0.111314 22.8039 0.143108 22.9311C0.159004 22.9788 0.159004 23.0424 0.174901 23.0901C0.190797 23.1854 0.238488 23.2649 0.302075 23.3285C0.317971 23.3603 0.349765 23.3921 0.381558 23.4239C0.349765 23.5829 0.381557 23.7578 0.55642 23.8055C0.620007 23.8213 0.683593 23.8213 0.74718 23.8055C0.79487 23.8213 0.84256 23.8372 0.906147 23.8214C0.953837 23.8055 0.98563 23.8055 1.03332 23.7896H1.04922C1.08101 23.8055 1.1128 23.8213 1.16049 23.8055C1.22408 23.8055 1.30357 23.7896 1.36715 23.7737C1.41484 23.7578 1.44663 23.7419 1.47843 23.7419C1.51022 23.7419 1.55791 23.726 1.5897 23.7101C1.6056 23.7101 1.6215 23.7101 1.63739 23.7101C1.74867 23.7101 1.84405 23.6942 1.93943 23.6624C2.03481 23.6783 2.14609 23.6306 2.24147 23.5988C2.28916 23.5829 2.35275 23.567 2.40044 23.5511C2.43223 23.5352 2.46402 23.5193 2.49581 23.5193C2.59119 23.5034 2.67068 23.4716 2.76606 23.4557C2.82965 23.4716 2.89323 23.4716 2.97272 23.4398C3.545 23.2808 4.06959 23.0106 4.59418 22.7403C4.64187 22.7244 4.68956 22.7085 4.73725 22.6767L4.88032 22.5813C4.91211 22.5654 4.92801 22.5495 4.94391 22.5178C4.9757 22.5019 4.9916 22.5019 5.02339 22.486C5.08698 22.4701 5.15056 22.4542 5.23005 22.4065C5.29363 22.3747 5.34132 22.3429 5.38901 22.2952C5.67515 22.1839 5.96129 22.0249 6.16795 21.8024C6.18385 21.7865 6.19974 21.7706 6.21564 21.7547C6.34281 21.6116 6.4223 21.4526 6.4223 21.2619C6.4223 21.087 6.34281 20.8803 6.21564 20.769C6.16795 20.7213 6.10436 20.6895 6.04078 20.6577C6.04078 19.99 5.59567 19.3224 5.11877 18.8295C5.07108 18.7818 5.02339 18.75 4.9757 18.7182C5.02339 18.4321 5.08697 18.1618 5.16646 17.8916C5.38901 17.0649 5.83412 16.3495 6.29512 15.6341C6.43819 15.507 6.56537 15.3798 6.70844 15.2367C6.91509 15.507 7.28072 15.6341 7.61455 15.4275C7.74172 15.348 7.86889 15.2526 7.99607 15.1731C8.18683 15.5229 8.61604 15.7454 8.98166 15.4752C9.2837 15.2526 9.56984 15.03 9.84008 14.8075C9.85598 14.8075 9.85598 14.8075 9.87188 14.7916C9.93546 14.8393 9.99905 14.887 10.0626 14.9187C10.1262 14.9982 10.2057 15.0777 10.3011 15.1413C10.4283 15.2208 10.5554 15.2526 10.6826 15.2367C10.7144 15.2685 10.7621 15.3162 10.7939 15.348C10.9529 15.4593 11.0959 15.507 11.2231 15.4911C11.2867 15.5705 11.3821 15.65 11.4774 15.6977C11.7 15.809 11.9702 15.8249 12.1928 15.6659C12.2882 15.6182 12.3518 15.5387 12.4153 15.4275L12.5266 15.2367C12.5743 15.1572 12.5902 15.0777 12.6061 14.9982C12.6538 14.9505 12.7015 14.9028 12.7333 14.8393L13.0194 14.251C13.0353 14.2193 13.0512 14.1875 13.0671 14.1557C13.1148 14.0762 13.1625 13.9967 13.2102 13.9172C13.2102 13.9013 13.2261 13.9013 13.2261 13.8854C13.242 13.8695 13.242 13.8377 13.2579 13.8218L13.3056 13.7105C13.3215 13.6628 13.3374 13.631 13.3532 13.5834C13.3532 13.5834 13.3533 13.5834 13.3691 13.5675C13.4486 13.4403 13.5281 13.3131 13.5917 13.17C13.6076 13.1223 13.6235 13.0746 13.6394 13.0428C13.6553 13.0269 13.6712 12.9951 13.6871 12.9634C13.7825 12.7567 13.8619 12.55 13.9414 12.3433C13.9573 12.2957 13.9732 12.248 13.9732 12.2003C13.9891 12.1685 14.005 12.1208 14.0209 12.089C14.0209 12.0731 14.0368 12.0572 14.0368 12.0572C14.0527 12.0095 14.0686 11.9618 14.1004 11.9141C14.1004 11.8982 14.1004 11.8982 14.1163 11.8823C14.1163 11.8664 14.1322 11.8505 14.1322 11.8346C14.1481 11.8028 14.1481 11.7869 14.1481 11.7551C14.1958 11.6439 14.2435 11.5326 14.2912 11.4213C14.3229 11.3259 14.3388 11.2464 14.3388 11.1669C14.3388 11.151 14.3547 11.151 14.3547 11.1351C14.3865 11.0874 14.4183 11.0239 14.4342 10.9444C14.4501 10.9126 14.4501 10.8649 14.4501 10.8331C14.466 10.7536 14.4819 10.6582 14.5137 10.5787C14.5296 10.531 14.5296 10.4833 14.5455 10.4356V10.4198C14.5932 10.2608 14.625 10.0859 14.6568 9.92693C14.6568 9.91103 14.6568 9.87924 14.6568 9.86334L14.6886 9.70436C14.6886 9.68847 14.6886 9.67257 14.7045 9.64077C14.7045 9.62488 14.7045 9.60898 14.7204 9.59308C14.7204 9.57718 14.7204 9.57718 14.7204 9.56129V9.54539C14.7363 9.41821 14.7522 9.29103 14.7681 9.16385C14.784 9.03667 14.8157 8.89359 14.8157 8.76641C14.8157 8.75051 14.8157 8.73462 14.8157 8.71872C14.8157 8.70282 14.8157 8.68692 14.8157 8.68692C14.8157 8.65513 14.8157 8.62333 14.8316 8.59154C14.8316 8.57564 14.8316 8.55974 14.8316 8.54385V8.52795C14.8316 8.51205 14.8316 8.49615 14.8316 8.48026C14.8316 8.44846 14.8316 8.41667 14.8316 8.40077C14.8316 8.28949 14.8316 8.1782 14.8316 8.05102C14.8316 8.01923 14.8316 7.97154 14.8157 7.93974C14.784 7.78077 14.784 7.74897 14.784 7.71718ZM10.0467 6.01614C10.0467 6.01614 10.0308 6.01614 10.0308 6.03204C9.93546 6.07973 9.85598 6.14332 9.7606 6.19102C9.69701 6.17512 9.63343 6.15922 9.56984 6.15922C9.64932 6.15922 9.7447 6.11153 9.80829 6.04794C9.90367 6.07973 10.0149 6.06384 10.0944 6.00025C10.0785 5.98435 10.0626 6.00025 10.0467 6.01614ZM10.1103 5.95255C10.158 5.90486 10.1898 5.85717 10.2057 5.79358C10.2216 5.80947 10.2375 5.84127 10.2534 5.85717C10.2057 5.88896 10.158 5.92076 10.1103 5.95255Z" fill="#829FC7"/>
<path d="M34.162 4.76029C34.162 4.7126 34.1461 4.68081 34.1302 4.64901C34.1143 4.49004 34.0984 4.31516 34.0666 4.15619C34.0666 4.10849 34.0348 4.0767 34.0189 4.04491C34.003 3.48849 33.9394 2.94798 33.8122 2.39157C33.8122 2.35977 33.7963 2.34387 33.7963 2.32798V2.31208C33.844 2.26439 33.8758 2.21669 33.9235 2.169C34.003 2.08951 34.003 1.99413 33.9712 1.91464C33.9712 1.89874 33.9871 1.88285 33.9871 1.86695C34.0507 1.67618 33.844 1.5331 33.6851 1.5649C33.6692 1.5649 33.6374 1.58079 33.6215 1.58079C33.6215 1.46951 33.542 1.35823 33.4466 1.32643C33.4307 1.31053 33.3989 1.29464 33.383 1.29464C33.3512 1.27874 33.3035 1.27874 33.2558 1.29464C32.8107 1.34233 32.1431 1.32643 31.8251 1.69208C31.4754 1.83515 31.1416 2.02592 30.7919 2.23259C30.2196 2.56644 29.6632 2.93208 29.1227 3.32952C28.0258 4.12439 27.0402 5.04645 26.1818 6.09568C26.0229 6.28645 26.2136 6.55671 26.3885 6.52492C27.0243 6.92235 27.6602 7.31979 28.2802 7.74902C28.9637 8.21005 29.5201 8.83005 30.0924 9.40236C30.6488 9.95878 31.1893 10.5311 31.698 11.1193C31.9364 11.4054 32.2067 11.6916 32.3815 12.0254C32.5564 12.3752 32.5723 12.7885 32.7154 13.1542C32.7948 13.3608 33.1446 13.4244 33.1923 13.1542C33.3671 12.248 33.5102 11.326 33.6215 10.4039C33.6215 10.388 33.6215 10.3562 33.6374 10.3403C33.844 9.67262 33.9553 8.97313 34.003 8.27364C34.003 8.19415 33.9712 8.13056 33.9235 8.09877C33.9553 7.78082 33.9712 7.46287 33.9871 7.14492C34.0507 7.11312 34.0825 7.06543 34.0984 7.00184C34.2097 6.23876 34.2255 5.50748 34.162 4.76029Z" fill="#E68F8B"/>
<path d="M9.04505 5.84118C9.01326 5.82528 8.99736 5.80939 8.96557 5.80939C8.94967 5.77759 8.93377 5.76169 8.91787 5.74579C8.91787 5.714 8.90198 5.6981 8.90198 5.66631C8.69532 5.20528 8.3138 4.90323 7.90049 4.66477C7.56666 4.28323 7.16924 3.94938 6.75592 3.64732C6.74003 3.63143 6.72413 3.63143 6.70823 3.63143C6.69234 3.61553 6.67644 3.59963 6.66055 3.56784C6.62875 3.55194 6.61286 3.52015 6.58106 3.50425C6.48568 3.42476 6.3903 3.34527 6.27902 3.26579C6.24723 3.24989 6.21544 3.23399 6.18365 3.23399C5.84981 2.91604 5.4524 2.67758 5.05498 2.43911C4.62577 2.18475 4.10118 1.72373 3.57659 1.67603C3.08379 1.2627 2.43203 1.07193 1.74847 1.34219C1.54181 1.42167 1.54181 1.69193 1.66899 1.78732C1.6213 1.9145 1.6054 2.05757 1.5895 2.15296C1.44643 2.88425 1.39874 3.66322 1.31926 4.39451C1.25567 5.01451 1.36695 5.66631 1.33516 6.28631C1.28747 6.49298 1.25567 6.71554 1.23978 6.92221C1.22388 7.0176 1.27157 7.08119 1.33516 7.12888C1.30336 7.22426 1.28747 7.31965 1.25567 7.41503C1.19209 7.6058 1.36695 7.73298 1.51002 7.71709C1.47823 7.81247 1.46233 7.90786 1.43054 8.00324C1.39874 8.11452 1.43054 8.19401 1.49412 8.2576C1.49412 8.67094 1.51002 9.06837 1.54181 9.48171C1.5736 10.1017 1.63719 10.7217 1.71668 11.3417C1.73257 11.453 1.81206 11.5007 1.90744 11.5166C1.90744 11.612 1.97102 11.6756 2.03461 11.7074C1.98692 11.8663 1.92333 12.0253 1.87564 12.1843C1.81206 12.3592 1.95513 12.4863 2.0982 12.4863C2.05051 12.5976 2.00282 12.693 1.95513 12.8043C1.82795 13.0904 2.24127 13.3448 2.38434 13.0586C2.87713 12.0889 3.44941 11.1827 4.10118 10.3243C4.16477 10.3243 4.24425 10.2925 4.29194 10.213C5.35702 8.81401 6.69234 7.6535 8.21842 6.79503C8.2979 6.74734 8.3297 6.68375 8.34559 6.62016L8.36149 6.60426C8.44097 6.62016 8.53635 6.60426 8.59994 6.54067C8.71122 6.52477 8.8066 6.46118 8.82249 6.3499C8.85429 6.334 8.88608 6.334 8.91787 6.30221C9.14043 6.28631 9.2676 5.96836 9.04505 5.84118Z" fill="#E68F8B"/>
<path d="M2.19373 13.2336C2.14604 13.2336 2.11425 13.2177 2.06656 13.2018C1.92348 13.1382 1.8281 12.9633 1.90759 12.7884C1.93938 12.709 1.98707 12.6136 2.03476 12.5341C1.95528 12.5182 1.89169 12.4705 1.8599 12.4228C1.8281 12.3751 1.79631 12.2956 1.844 12.1843C1.89169 12.0572 1.93938 11.9141 2.00297 11.7392C1.93938 11.7074 1.89169 11.6438 1.8758 11.5643C1.76452 11.5325 1.70093 11.4689 1.68504 11.3577C1.58966 10.7377 1.54196 10.1177 1.51017 9.49766C1.47838 9.06843 1.46248 8.67099 1.46248 8.28945C1.383 8.22586 1.3671 8.11458 1.39889 8.0033C1.43069 7.92381 1.44658 7.84432 1.46248 7.76483C1.383 7.74894 1.30352 7.71714 1.25583 7.65355C1.20814 7.58996 1.19224 7.49458 1.22403 7.39919C1.23993 7.3197 1.27172 7.24021 1.30351 7.14483C1.23993 7.09714 1.20814 7.01765 1.20814 6.92226C1.22403 6.6997 1.27172 6.49303 1.30351 6.27047C1.31941 5.98431 1.30352 5.66636 1.28762 5.38021C1.27172 5.04636 1.25583 4.71251 1.28762 4.37866C1.30352 4.26738 1.30351 4.172 1.31941 4.06071C1.383 3.42481 1.43069 2.75712 1.55786 2.13712C1.55786 2.12122 1.57376 2.08942 1.57376 2.07353C1.58966 1.97814 1.60555 1.88276 1.63735 1.78737C1.57376 1.72378 1.54197 1.6125 1.55786 1.51711C1.57376 1.40583 1.65324 1.32634 1.74862 1.29455C2.38449 1.05609 3.03625 1.16737 3.60853 1.6284C4.00595 1.66019 4.40337 1.93045 4.7531 2.16891C4.86437 2.2484 4.97565 2.32789 5.08692 2.39148H5.10282C5.48434 2.62994 5.88176 2.8684 6.21559 3.17045C6.24738 3.17045 6.27918 3.18635 6.31097 3.21815C6.42225 3.29763 6.51763 3.36122 6.61301 3.45661L6.69249 3.5202C6.70839 3.5361 6.72428 3.55199 6.75608 3.58379C6.77197 3.58379 6.78787 3.59969 6.78787 3.59969C7.23298 3.91764 7.6145 4.25148 7.94833 4.61713C8.45702 4.90328 8.79085 5.23713 8.96572 5.63457C8.98161 5.65046 8.98161 5.68226 8.98161 5.71405C8.99751 5.72995 9.01341 5.74585 9.0293 5.76175C9.0611 5.77764 9.07699 5.77764 9.10879 5.79354C9.22006 5.85713 9.26775 5.96842 9.23596 6.0956C9.20417 6.22278 9.10879 6.31816 8.99751 6.33406C8.98161 6.34996 8.94982 6.36585 8.91803 6.36585C8.88623 6.47713 8.77496 6.55662 8.67958 6.57252C8.61599 6.63611 8.53651 6.65201 8.44113 6.63611C8.42523 6.7156 8.37754 6.77919 8.29805 6.82688C6.75608 7.70124 5.43665 8.84586 4.38747 10.2289C4.33978 10.2925 4.2603 10.3402 4.18081 10.3561C3.52905 11.1987 2.95677 12.1049 2.47987 13.0746C2.36859 13.1859 2.27321 13.2336 2.19373 13.2336ZM1.55786 7.68535L1.54196 7.76483C1.51017 7.86022 1.49427 7.9397 1.46248 8.03509C1.43069 8.11458 1.46248 8.19407 1.51017 8.24176L1.52607 8.25765V8.27355C1.52607 8.65509 1.54197 9.05253 1.57376 9.48176C1.60555 10.1018 1.66914 10.7218 1.74862 11.3259C1.76452 11.4372 1.8599 11.4531 1.90759 11.4689H1.93938V11.5007C1.93938 11.5961 2.00297 11.6438 2.05066 11.6597L2.08245 11.6756L2.06656 11.7074C2.00297 11.8982 1.95528 12.0413 1.90759 12.1843C1.89169 12.2479 1.89169 12.2956 1.92349 12.3433C1.95528 12.391 2.01886 12.4228 2.09835 12.4387H2.16194L2.11425 12.5341C2.06656 12.6295 2.03476 12.709 1.98707 12.8043C1.92348 12.9315 2.00297 13.0587 2.09835 13.1064C2.17783 13.1382 2.27321 13.1382 2.3368 13.0269C2.8296 12.0572 3.40188 11.1351 4.05364 10.2925L4.06954 10.2766H4.08543C4.13312 10.2766 4.19671 10.2607 4.2603 10.1813C5.32538 8.78227 6.6448 7.62175 8.20268 6.74739C8.28216 6.6997 8.29805 6.63611 8.29805 6.60431V6.58842L8.31395 6.57252C8.31395 6.57252 8.31395 6.57252 8.32985 6.55662L8.34574 6.54072H8.36164C8.44113 6.55662 8.52061 6.54073 8.5683 6.49303L8.5842 6.47713H8.60009C8.67958 6.46124 8.77496 6.41354 8.79085 6.31816V6.28636H8.82265C8.85444 6.28636 8.88623 6.27047 8.90213 6.25457H8.91803H8.93392C9.0134 6.23867 9.09289 6.17508 9.10879 6.0797C9.12468 6.032 9.12468 5.93662 9.0134 5.87303C8.98161 5.85713 8.96571 5.84123 8.93392 5.84123H8.91803V5.82534C8.90213 5.80944 8.88623 5.77764 8.87034 5.76175L8.85444 5.74585V5.72995C8.85444 5.71405 8.85444 5.68226 8.83854 5.66636C8.66368 5.26892 8.34575 4.96687 7.85295 4.68072L7.83705 4.66482C7.51912 4.29918 7.1376 3.96533 6.69249 3.66328C6.67659 3.64738 6.67659 3.64738 6.6607 3.64738H6.6448V3.63148C6.6289 3.61558 6.61301 3.59969 6.59711 3.58379L6.51763 3.5202C6.42225 3.44071 6.32687 3.36122 6.21559 3.28174C6.19969 3.26584 6.1679 3.24994 6.152 3.24994H6.13611L6.12021 3.23404C5.80228 2.91609 5.40486 2.67763 5.00744 2.45507H4.99155C4.88027 2.39148 4.76899 2.31199 4.65771 2.2325C4.30799 1.99404 3.92647 1.73968 3.52905 1.70788H3.51315L3.49726 1.69199C2.95677 1.24686 2.3209 1.13557 1.71683 1.37404C1.62145 1.40583 1.58966 1.50122 1.57376 1.53301C1.55786 1.6125 1.58966 1.70788 1.63735 1.75558L1.65324 1.77147L1.63735 1.80327C1.60555 1.89865 1.58966 2.00994 1.57376 2.10532C1.57376 2.13712 1.55786 2.15301 1.55786 2.16891C1.43069 2.78891 1.383 3.45661 1.31941 4.09251C1.30351 4.20379 1.30352 4.31507 1.28762 4.41046C1.25583 4.72841 1.27172 5.06226 1.28762 5.3961C1.30352 5.69816 1.31941 6.00021 1.30351 6.30226C1.25582 6.50893 1.22403 6.73149 1.20814 6.93816C1.19224 7.03355 1.23993 7.08124 1.28762 7.09714L1.31941 7.11303V7.14483C1.28762 7.25611 1.27172 7.3515 1.23993 7.43098C1.22403 7.49457 1.22403 7.55817 1.27172 7.60586C1.31941 7.65355 1.383 7.68535 1.46248 7.68535H1.55786Z" fill="#E68F8B"/>
<path d="M20.5226 25.0137C20.4908 24.8229 20.1728 24.7593 20.1093 24.9978C19.9821 25.4429 19.8231 25.8721 19.6165 26.2696C19.6006 26.2855 19.6006 26.2855 19.5847 26.3014C19.4575 26.4604 19.3303 26.6352 19.219 26.7942C19.2349 26.2537 19.2349 25.7132 19.2349 25.1886C19.2508 25.1568 19.2667 25.125 19.2667 25.0932C19.2667 24.9501 19.2667 24.7911 19.2826 24.648C19.2985 24.6003 19.2826 24.5367 19.2508 24.4891C19.2667 24.4732 19.2667 24.4732 19.2826 24.4573C19.3144 24.4255 19.2667 24.3619 19.219 24.3937C19.2031 24.4096 19.1872 24.4255 19.1714 24.4414C19.1714 24.4414 19.1714 24.4414 19.1555 24.4414C19.1396 24.4414 19.1396 24.4414 19.1237 24.4414C19.1078 24.4255 19.076 24.4255 19.0442 24.4255H15.6264C15.5946 24.4255 15.5787 24.4255 15.5469 24.4414C15.531 24.4414 15.4992 24.4414 15.4833 24.4573L15.4674 24.4414C15.4356 24.3937 15.372 24.4573 15.4038 24.505L15.4197 24.5209C15.3879 24.5685 15.3879 24.6162 15.4038 24.6639C15.3879 24.6798 15.3879 24.7116 15.3879 24.7434C15.4356 25.4111 15.5151 26.0788 15.5151 26.7465C15.4833 26.7465 15.4515 26.7465 15.4197 26.7465C15.4197 26.7306 15.4038 26.7147 15.4038 26.6988C15.372 26.6352 15.3244 26.6034 15.2767 26.5716C15.1972 26.4286 15.1018 26.2855 15.0223 26.1424C14.9269 25.888 14.8157 25.6337 14.6885 25.3952C14.6885 25.3793 14.6885 25.3634 14.6885 25.3475C14.6567 25.1886 14.609 25.0614 14.5454 24.9183C14.5454 24.9183 14.5454 24.9024 14.5295 24.9024C14.5136 24.8547 14.4818 24.8547 14.45 24.8706C14.4023 24.8706 14.3547 24.9024 14.3547 24.9501C14.3388 24.9501 14.3229 24.9342 14.2911 24.9342C14.2752 24.9342 14.2434 24.9342 14.2275 24.9501C14.1957 24.9183 14.1639 24.9183 14.1321 24.9342C13.9572 25.0614 13.5916 25.0137 13.5439 25.2839C13.5121 25.427 13.5916 25.6337 13.6234 25.7609C13.6711 26.0152 13.7188 26.2537 13.7665 26.508C13.7824 26.5557 13.8142 26.5716 13.846 26.5716C14.148 27.7798 14.4659 29.0039 14.9269 30.1486C15.1813 30.7845 15.6423 31.3091 16.2146 31.6429C16.2464 31.6906 16.2941 31.7542 16.3576 31.786C16.4212 31.8178 16.4689 31.8496 16.5325 31.8814C16.5961 31.9132 16.6438 31.9291 16.7074 31.9291C16.8027 31.9609 16.8822 31.9927 16.9776 32.0086C17.0889 32.0245 17.1843 32.0245 17.2955 32.0086C17.5022 32.1199 17.8042 32.0881 17.9632 31.945C17.9791 31.945 18.0109 31.945 18.0268 31.9291C18.4083 31.8019 18.6945 31.5793 18.917 31.2773C19.0442 31.2773 19.1555 31.2137 19.2349 31.0706C19.3144 30.9434 19.3303 30.8163 19.3303 30.6891C19.7277 30.2122 20.0616 29.7034 20.3159 29.0834C20.7769 27.9547 20.9677 26.6988 21.1266 25.4906C21.222 25.0932 20.761 24.8547 20.5226 25.0137Z" fill="#912819"/>
<path d="M20.4591 28.7338C19.3622 26.0312 15.3244 26.0948 14.2911 28.4317C14.3547 29.2425 15.6265 31.3092 16.0239 31.5953C16.4213 31.8815 17.3115 32.1994 17.8838 32.0405C19.4894 31.5794 20.3478 29.0676 20.4591 28.7338Z" fill="#DD6E5D"/>
<path d="M27.8829 7.44715C28.185 6.84305 31.6504 3.39329 32.5248 2.91636C32.9063 2.70969 33.2401 2.55072 33.2878 3.2979C33.4786 6.54099 32.1274 11.2626 32.0002 11.6918C30.8715 9.76819 28.2486 7.70151 27.8829 7.44715Z" fill="#F9AEAA"/>
<path d="M7.48743 7.44715C7.1854 6.84305 3.71992 3.39329 2.8456 2.91636C2.46408 2.70969 2.13025 2.55072 2.08256 3.2979C1.8918 6.54099 3.24302 11.2626 3.37019 11.6918C4.51475 9.76819 7.12181 7.70151 7.48743 7.44715Z" fill="#F9AEAA"/>
<path d="M2.4003 12.6615C2.11416 11.8348 2.05057 10.9445 1.92339 10.0702L1.57367 7.46298C1.55777 7.30401 1.30342 7.30401 1.31932 7.46298C1.44649 8.38504 1.55777 9.30709 1.68494 10.245C1.79622 11.0876 1.8757 11.9302 2.14595 12.741C2.20953 12.884 2.44799 12.8204 2.4003 12.6615Z" fill="#E68F8B"/>
<path d="M1.58962 3.552C1.43066 3.552 1.43066 3.8065 1.58962 3.8065C1.74859 3.7906 1.74859 3.552 1.58962 3.552Z" fill="#E68F8B"/>
<path d="M1.36713 4.15616C1.31944 4.47429 1.30354 4.79241 1.31944 5.11053C1.31944 5.26959 1.57379 5.26959 1.57379 5.11053C1.57379 4.79241 1.58968 4.47429 1.62147 4.15616C1.63737 3.9971 1.39892 3.9971 1.36713 4.15616Z" fill="#E68F8B"/>
<path d="M9.12472 5.93661C8.13913 4.7284 6.97867 3.66327 5.67514 2.78891C5.13465 2.43916 4.57827 2.10531 4.00599 1.81916C3.79933 1.70787 3.59267 1.59659 3.38602 1.51711C3.0045 1.34223 2.60708 1.19916 2.19377 1.21505C2.13018 1.19916 2.06659 1.19915 2.00301 1.18326C1.90763 1.16736 1.84404 1.21505 1.82814 1.27864C1.78045 1.29454 1.71686 1.31044 1.66917 1.34223C1.43072 1.45351 1.63738 1.81916 1.87583 1.70787C1.97121 1.66018 2.06659 1.62839 2.17787 1.62839C2.57528 1.67608 2.9727 1.75557 3.35422 1.91454C3.4814 1.97813 3.60857 2.04172 3.73574 2.10531C3.9265 2.2166 4.10137 2.34377 4.29213 2.45506C4.94389 2.88429 5.59566 3.32942 6.24742 3.77455C6.29511 3.80635 6.3587 3.82224 6.40639 3.80634C7.3125 4.52173 8.12323 5.33251 8.85448 6.20687C8.99755 6.44533 9.28369 6.14328 9.12472 5.93661Z" fill="#E68F8B"/>
<path d="M33.3672 13.6152L32.8903 13.4562C34.5753 8.2736 33.8441 2.66179 33.6374 1.75563C33.4785 1.11973 33.3036 0.769984 33.0175 0.611009C32.6677 0.420239 32.1113 0.499726 31.0622 0.865369C28.7571 1.69204 25.3076 3.48846 23.4159 5.18949L23.082 4.82385C25.0373 3.04333 28.4869 1.24691 30.8873 0.388444C31.8888 0.022801 32.6836 -0.152071 33.24 0.165879C33.6533 0.388445 33.9077 0.833574 34.0984 1.62845C34.3846 2.75717 35.0681 8.35309 33.3672 13.6152Z" fill="black"/>
<path d="M26.1183 6.28638L25.8799 6.1274C27.0562 4.33099 30.8556 1.40584 32.8108 1.0402C33.2401 0.960714 33.5739 1.00841 33.7964 1.16738L33.6216 1.40584C33.4626 1.29456 33.2083 1.26277 32.8585 1.32636C30.9986 1.6602 27.247 4.56945 26.1183 6.28638Z" fill="black"/>
<path d="M1.98703 13.4243C0.317882 8.25765 1.01734 2.8207 1.28758 1.66018C1.47834 0.86531 1.74858 0.42018 2.146 0.197615C2.71828 -0.104437 3.49722 0.0704354 4.49871 0.42018C6.89911 1.27865 10.3646 3.07506 12.304 4.85558L11.9701 5.22123C10.0943 3.5043 6.62886 1.70788 4.32385 0.897105C3.29056 0.531463 2.71828 0.451976 2.36856 0.642746C2.09831 0.785823 1.90755 1.13557 1.74858 1.78737C1.47834 2.93199 0.794783 8.24175 2.43214 13.2813L1.98703 13.4243Z" fill="black"/>
<path d="M9.29943 6.28638C8.17077 4.56945 4.41915 1.6602 2.55924 1.32636C2.20952 1.26277 1.95517 1.29456 1.7962 1.40584L1.62134 1.16738C1.84389 1.00841 2.17772 0.960714 2.60693 1.0402C4.57812 1.40584 8.36153 4.33099 9.53788 6.1274L9.29943 6.28638Z" fill="black"/>
<path d="M17.6294 39.1784C7.90065 39.1784 0 31.2614 0 21.5481C0 11.8188 7.91655 3.91772 17.6294 3.91772C27.3423 3.91772 35.2588 11.8347 35.2588 21.5481C35.2588 31.2773 27.3423 39.1784 17.6294 39.1784ZM17.6294 4.29927C8.10731 4.29927 0.365624 12.0413 0.365624 21.5481C0.365624 31.0548 8.10731 38.7968 17.6135 38.7968C27.1356 38.7968 34.8614 31.0548 34.8614 21.5481C34.8614 12.0413 27.1356 4.29927 17.6294 4.29927Z" fill="black"/>
<path d="M0.556321 23.8374C0.476838 23.8374 0.397354 23.8374 0.317871 23.8374V23.7579C2.00292 23.8215 4.0059 23.1379 6.08837 21.7707C8.09135 20.4512 10.0307 18.5753 11.5409 16.4768C14.5454 12.3117 15.5151 7.92396 14.2116 4.45831L14.2911 4.42651C15.6105 7.92396 14.6408 12.3276 11.6204 16.5245C8.47287 20.8645 3.95821 23.8374 0.556321 23.8374Z" fill="black"/>
<path d="M34.5754 23.8374C31.1576 23.8374 26.6588 20.8646 23.5272 16.5086C20.5068 12.3117 19.5212 7.90809 20.8565 4.41064L20.936 4.44244C19.6166 7.90809 20.5863 12.2958 23.6066 16.461C25.1168 18.5594 27.0562 20.4353 29.0592 21.7548C31.1417 23.122 33.1288 23.8056 34.8297 23.742V23.8215C34.7343 23.8374 34.6548 23.8374 34.5754 23.8374Z" fill="black"/>
<path d="M9.10881 22.8357C11.4178 22.8357 13.2896 20.9638 13.2896 18.6547C13.2896 16.3456 11.4178 14.4736 9.10881 14.4736C6.7998 14.4736 4.92798 16.3456 4.92798 18.6547C4.92798 20.9638 6.7998 22.8357 9.10881 22.8357Z" fill="#F0C401"/>
<path d="M25.9433 22.8357C28.2523 22.8357 30.1241 20.9638 30.1241 18.6547C30.1241 16.3456 28.2523 14.4736 25.9433 14.4736C23.6343 14.4736 21.7625 16.3456 21.7625 18.6547C21.7625 20.9638 23.6343 22.8357 25.9433 22.8357Z" fill="#F0C401"/>
<path d="M25.9275 22.7403C25.848 22.7403 25.7685 22.7403 25.689 22.7403C24.0199 22.645 22.6369 21.5798 22.0805 19.9424C21.9374 19.5449 22.16 19.1157 22.5415 18.9726C22.9389 18.8296 23.3681 19.0521 23.5112 19.4337C23.8768 20.4829 24.7193 21.1506 25.7844 21.2142C26.9131 21.2778 27.9464 20.5942 28.5027 19.4496C28.6776 19.068 29.1386 18.909 29.5201 19.0998C29.9016 19.2747 30.0606 19.7357 29.8699 20.1173C29.0909 21.7388 27.5966 22.7403 25.9275 22.7403Z" fill="white"/>
<path d="M9.07702 22.788C7.77349 22.788 6.58124 22.1362 5.8023 20.9915C5.57975 20.6736 5.65923 20.2285 5.99306 20.0059C6.311 19.7833 6.75611 19.8628 6.97866 20.1967C7.50325 20.9597 8.26629 21.389 9.12471 21.3731C10.0785 21.3572 11.0164 20.8008 11.6205 19.8628C11.8271 19.529 12.2723 19.4336 12.6061 19.6561C12.9399 19.8628 13.0353 20.3079 12.8127 20.6418C11.9543 21.9772 10.5713 22.788 9.14061 22.8038C9.10881 22.788 9.09292 22.788 9.07702 22.788Z" fill="white"/>
<path d="M28.4235 17.0179C28.8098 17.0179 29.1229 16.7046 29.1229 16.318C29.1229 15.9315 28.8098 15.6182 28.4235 15.6182C28.0372 15.6182 27.724 15.9315 27.724 16.318C27.724 16.7046 28.0372 17.0179 28.4235 17.0179Z" fill="white"/>
<path d="M11.4297 17.6849C11.8599 17.6849 12.2086 17.3361 12.2086 16.9059C12.2086 16.4757 11.8599 16.127 11.4297 16.127C10.9995 16.127 10.6508 16.4757 10.6508 16.9059C10.6508 17.3361 10.9995 17.6849 11.4297 17.6849Z" fill="white"/>
<path d="M9.10885 22.9629C6.74024 22.9629 4.80084 21.0234 4.80084 18.6547C4.80084 16.2859 6.74024 14.3464 9.10885 14.3464C11.4775 14.3464 13.4168 16.2859 13.4168 18.6547C13.4168 21.0234 11.4933 22.9629 9.10885 22.9629ZM9.10885 14.6008C6.86741 14.6008 5.05519 16.4131 5.05519 18.6547C5.05519 20.8962 6.86741 22.7085 9.10885 22.7085C11.3503 22.7085 13.1625 20.8962 13.1625 18.6547C13.1784 16.4131 11.3503 14.6008 9.10885 14.6008Z" fill="black"/>
<path d="M25.9433 22.9629C23.5746 22.9629 21.6353 21.0234 21.6353 18.6547C21.6353 16.2859 23.5746 14.3464 25.9433 14.3464C28.3119 14.3464 30.2513 16.2859 30.2513 18.6547C30.2513 21.0234 28.3119 22.9629 25.9433 22.9629ZM25.9433 14.6008C23.7018 14.6008 21.8896 16.4131 21.8896 18.6547C21.8896 20.8962 23.7018 22.7085 25.9433 22.7085C28.1847 22.7085 29.9969 20.8962 29.9969 18.6547C29.9969 16.4131 28.1847 14.6008 25.9433 14.6008Z" fill="black"/>
<path d="M26.0229 21.246C27.4803 21.246 28.6618 20.0645 28.6618 18.607C28.6618 17.1495 27.4803 15.968 26.0229 15.968C24.5655 15.968 23.3841 17.1495 23.3841 18.607C23.3841 20.0645 24.5655 21.246 26.0229 21.246Z" fill="black"/>
<path d="M33.6131 25.9513C33.7922 24.8596 32.7926 23.7868 31.3804 23.5551C29.9683 23.3234 28.6783 24.0206 28.4992 25.1122C28.3201 26.2039 29.3197 27.2767 30.7319 27.5084C32.144 27.7401 33.434 27.043 33.6131 25.9513Z" fill="#E68E8A"/>
<path d="M31.2847 27.6048C31.1098 27.6048 30.9191 27.5889 30.7442 27.5571C30.0447 27.4458 29.4248 27.1279 28.9956 26.6668C28.5664 26.2058 28.3756 25.6494 28.4551 25.093C28.5505 24.5525 28.9002 24.0755 29.4566 23.7735C30.0129 23.4714 30.6965 23.376 31.396 23.4873C32.8426 23.7258 33.8599 24.8227 33.6851 25.9514C33.5261 26.9371 32.4928 27.6048 31.2847 27.6048ZM30.8396 23.5668C30.3627 23.5668 29.9017 23.6781 29.5043 23.8848C28.9797 24.1709 28.6458 24.6002 28.5663 25.1089C28.4869 25.6176 28.6617 26.1422 29.075 26.5714C29.4884 27.0166 30.0765 27.3186 30.7442 27.4299C32.1113 27.6525 33.383 26.9848 33.5579 25.9196C33.7328 24.8704 32.7472 23.8212 31.3801 23.5986C31.2052 23.5827 31.0144 23.5668 30.8396 23.5668Z" fill="black"/>
<path d="M4.82119 27.4984C6.23336 27.2667 7.23296 26.1939 7.05387 25.1022C6.87477 24.0105 5.58479 23.3134 4.17262 23.5451C2.76045 23.7768 1.76085 24.8496 1.93995 25.9412C2.11905 27.0329 3.40902 27.7301 4.82119 27.4984Z" fill="#E68E8A"/>
<path d="M4.27631 27.605C3.06816 27.605 2.03487 26.9373 1.87591 25.9517C1.68515 24.823 2.71843 23.726 4.16503 23.4876C4.86448 23.3763 5.54804 23.4717 6.10443 23.7737C6.66081 24.0758 7.02643 24.5368 7.10592 25.0932C7.2013 25.6337 7.01054 26.1901 6.56543 26.6671C6.13622 27.1281 5.51625 27.446 4.8168 27.5573C4.64193 27.5891 4.46707 27.605 4.27631 27.605ZM2.00308 25.9358C2.17794 26.985 3.43378 27.6686 4.8168 27.446C5.48446 27.3348 6.07263 27.0327 6.48595 26.5876C6.89926 26.1424 7.07413 25.6337 6.99464 25.125C6.91516 24.6163 6.58133 24.1871 6.05674 23.9009C5.53215 23.6147 4.86449 23.5194 4.19683 23.6306C2.81381 23.8373 1.82822 24.8865 2.00308 25.9358Z" fill="black"/>
<path d="M6.19969 18.8773C7.04222 18.3209 9.10878 16.8901 11.8907 18.0983C12.1133 18.1937 12.1927 18.5752 11.7317 18.5434C9.999 18.4321 8.26626 18.6388 6.96273 20.0219C6.83556 20.165 6.54942 20.2763 6.56532 19.8152C6.56532 19.5927 6.59711 19.3701 6.6448 19.2111C6.48583 19.1475 6.37456 19.1316 6.1838 19.0998C6.05662 19.0839 6.08841 18.9568 6.19969 18.8773Z" fill="black"/>
<path d="M17.3911 22.5177C16.8029 22.2475 16.2783 21.5321 16.1829 21.2618C16.1193 21.087 16.0399 20.7849 16.5645 20.7054C17.0255 20.6418 17.6931 20.6736 18.1382 20.7054C18.5674 20.7531 18.6628 20.9121 18.488 21.3731C18.2972 21.7705 17.8839 22.2475 17.3911 22.5177Z" fill="black"/>
<path d="M17.3433 32.2472C14.8952 32.2472 13.9414 27.923 13.4327 25.5861C13.4009 25.4271 13.3691 25.2682 13.3373 25.1251L13.5758 25.0774C13.6076 25.2205 13.6394 25.3794 13.6712 25.5384C14.1322 27.6369 15.086 31.9928 17.3274 31.9928C19.9186 31.9928 21.0949 26.5082 21.0949 25.0933H21.3493C21.3493 26.7625 20.1093 32.2472 17.3433 32.2472Z" fill="black"/>
<path d="M21.1902 25.2206C21.0153 25.1729 20.9358 25.1411 20.8723 25.1252C20.7928 25.0933 20.6815 25.0615 20.7292 24.9502C20.761 24.8389 20.8723 24.8707 20.9676 24.8866C21.0312 24.9025 21.1266 24.9343 21.2697 24.982L21.1902 25.2206Z" fill="black"/>
<path d="M14.5613 24.7274C14.7839 25.5223 15.0064 26.0787 15.4675 26.7623C15.4516 25.8084 15.4039 24.8705 15.4198 24.3936C15.4039 24.2028 14.5613 24.7274 14.5613 24.7274Z" fill="white"/>
<path d="M15.4516 26.8259C15.4357 26.8259 15.4039 26.81 15.4039 26.7941C14.927 26.0628 14.7045 25.4905 14.4978 24.7433C14.4978 24.7115 14.4978 24.6797 14.5296 24.6797C14.8157 24.5049 15.2926 24.2346 15.4198 24.3141C15.4516 24.33 15.4675 24.3618 15.4675 24.4095C15.4675 24.6638 15.4675 25.0613 15.4834 25.5223C15.4993 25.9038 15.5152 26.349 15.5152 26.7782C15.5152 26.81 15.4993 26.8259 15.4675 26.8418C15.4675 26.8259 15.4675 26.8259 15.4516 26.8259ZM14.625 24.7592C14.8157 25.411 15.0065 25.9197 15.388 26.5397C15.388 26.1741 15.3721 25.8244 15.3562 25.5064C15.3403 25.0613 15.3244 24.6797 15.3403 24.4095C15.245 24.4254 14.9111 24.5843 14.625 24.7592Z" fill="black"/>
<path d="M20.157 24.7274C19.9345 25.5223 19.7119 26.0787 19.2509 26.7623C19.2668 25.8084 19.3145 24.8705 19.2986 24.3936C19.2986 24.2028 20.157 24.7274 20.157 24.7274Z" fill="white"/>
<path d="M19.2508 26.8259H19.2349C19.2031 26.81 19.1872 26.7941 19.1872 26.7623C19.1872 26.3331 19.2031 25.8879 19.219 25.5064C19.2349 25.0454 19.2508 24.6638 19.2349 24.4095C19.2349 24.3777 19.2508 24.3459 19.2826 24.3141C19.4097 24.2346 19.9025 24.5049 20.1728 24.6797C20.2046 24.6956 20.2046 24.7274 20.2046 24.7433C19.9979 25.4905 19.7754 26.0628 19.2985 26.7941C19.2985 26.81 19.2826 26.8259 19.2508 26.8259ZM19.3621 24.4095C19.3621 24.6638 19.3621 25.0454 19.3462 25.4905C19.3303 25.8085 19.3303 26.1582 19.3144 26.5238C19.6959 25.9038 19.8866 25.3792 20.0774 24.7433C19.7913 24.5843 19.4733 24.4254 19.3621 24.4095Z" fill="black"/>
<path d="M11.1276 25.5542C11.0323 25.5542 10.9528 25.5542 10.8733 25.5542C10.4441 25.5383 9.68104 25.4429 9.44259 25.0614C9.22004 24.7275 9.29952 24.3778 9.61746 24.1075C9.66515 24.0598 9.74463 24.0757 9.79232 24.1234C9.84001 24.1711 9.82411 24.2506 9.77642 24.2983C9.61746 24.4255 9.47439 24.648 9.64925 24.9342C9.77642 25.1409 10.2374 25.2839 10.8892 25.2998C12.4471 25.3793 15.4833 24.7593 17.0253 22.8198C17.1207 22.7086 17.2002 22.3429 17.2002 22.1203C17.2002 22.0568 17.2638 21.9932 17.3273 21.9932C17.3909 21.9932 17.4545 22.0568 17.4545 22.1203C17.4545 22.3588 17.375 22.8039 17.232 22.9788C15.69 24.8865 12.7809 25.5542 11.1276 25.5542Z" fill="black"/>
<path d="M23.5906 25.5542C21.9215 25.5542 19.0283 24.8865 17.5181 22.9788C17.375 22.8039 17.2955 22.3588 17.2955 22.1203C17.2955 22.0568 17.3591 21.9932 17.4227 21.9932C17.4863 21.9932 17.5499 22.0568 17.5499 22.1203C17.5499 22.3429 17.6294 22.7086 17.7247 22.8198C19.2667 24.7593 22.303 25.3634 23.8609 25.2998C24.5126 25.268 24.9736 25.125 25.1008 24.9342C25.2916 24.648 25.1326 24.4414 24.9736 24.2983C24.9259 24.2506 24.91 24.1711 24.9577 24.1234C25.0054 24.0757 25.0849 24.0598 25.1326 24.1075C25.4505 24.3778 25.53 24.7275 25.3075 25.0614C25.069 25.4429 24.306 25.5224 23.8768 25.5542C23.7655 25.5542 23.686 25.5542 23.5906 25.5542Z" fill="black"/>
<path d="M19.2508 24.4414H15.4038C15.3879 24.4414 15.3561 24.4255 15.3561 24.3937C15.3561 24.3619 15.372 24.3459 15.4038 24.3459H19.2508C19.2667 24.3459 19.2985 24.3619 19.2985 24.3937C19.2985 24.4255 19.2826 24.4414 19.2508 24.4414Z" fill="black"/>
</svg>
